<svg xmlns="http://www.w3.org/2000/svg" width="512" height="512" viewBox="0 0 512 512" version="1.1">
	<path d="M 231 1.063 C 189.358 5.630, 149.504 19.665, 116.571 41.360 C 66.673 74.231, 31.406 120.064, 12.967 176 C 4.730 200.986, 1.269 220.713, 0.334 248 C -3.211 351.459, 56.362 446.824, 151.289 489.647 C 156.905 492.181, 168.025 496.404, 176 499.033 C 200.986 507.270, 220.713 510.731, 248 511.666 C 351.459 515.211, 446.824 455.638, 489.647 360.711 C 499.746 338.325, 507.757 308.971, 510.052 285.943 C 510.680 279.649, 511.600 273.719, 512.097 272.764 C 513.246 270.555, 513.292 237.701, 512.145 238.410 C 511.675 238.701, 510.999 235.154, 510.644 230.529 C 507.802 193.562, 492.337 149.507, 470.640 116.571 C 429.230 53.711, 366.287 13.590, 291.500 2.384 C 279.411 0.573, 242.767 -0.227, 231 1.063 M 0.411 256 C 0.411 265.625, 0.561 269.563, 0.745 264.750 C 0.928 259.938, 0.928 252.062, 0.745 247.250 C 0.561 242.438, 0.411 246.375, 0.411 256" stroke="none" fill="black" fill-rule="evenodd"/>
</svg>